<?xml version="1.0" encoding="UTF-8" standalone="no"?>
<!-- Created with Inkscape (http://www.inkscape.org/) -->

<svg
   xmlns:dc="http://purl.org/dc/elements/1.1/"
   xmlns:cc="http://creativecommons.org/ns#"
   xmlns:rdf="http://www.w3.org/1999/02/22-rdf-syntax-ns#"
   xmlns:svg="http://www.w3.org/2000/svg"
   xmlns="http://www.w3.org/2000/svg"
   xmlns:sodipodi="http://sodipodi.sourceforge.net/DTD/sodipodi-0.dtd"
   xmlns:inkscape="http://www.inkscape.org/namespaces/inkscape"
   width="20"
   height="20"
   id="svg2"
   version="1.1"
   inkscape:version="0.48.4 r9939"
   sodipodi:docname="edit-icon.svg">
  <defs
     id="defs4" />
  <sodipodi:namedview
     id="base"
     pagecolor="#ffffff"
     bordercolor="#666666"
     borderopacity="1.0"
     inkscape:pageopacity="0.0"
     inkscape:pageshadow="2"
     inkscape:zoom="11.2"
     inkscape:cx="38.574195"
     inkscape:cy="8.8563792"
     inkscape:document-units="px"
     inkscape:current-layer="layer1"
     showgrid="true"
     inkscape:window-width="1536"
     inkscape:window-height="806"
     inkscape:window-x="0"
     inkscape:window-y="0"
     inkscape:window-maximized="1"
     units="px">
    <inkscape:grid
       type="xygrid"
       id="grid2995"
       empspacing="5"
       visible="true"
       enabled="true"
       snapvisiblegridlinesonly="true" />
  </sodipodi:namedview>
  <metadata
     id="metadata7">
    <rdf:RDF>
      <cc:Work
         rdf:about="">
        <dc:format>image/svg+xml</dc:format>
        <dc:type
           rdf:resource="http://purl.org/dc/dcmitype/StillImage" />
        <dc:title></dc:title>
      </cc:Work>
    </rdf:RDF>
  </metadata>
  <g
     inkscape:label="Layer 1"
     inkscape:groupmode="layer"
     id="layer1"
     transform="translate(0,-1032.3622)">
    <path
       style="fill:#ff9bff;fill-opacity:1;stroke:#000000;stroke-width:1.42857146;stroke-linejoin:round;stroke-miterlimit:4;stroke-opacity:1;stroke-dasharray:none"
       d=""
       id="path3023"
       inkscape:connector-curvature="0" />
    <path
       style="fill:#ff9bff;fill-opacity:1;stroke:none"
       d=""
       id="path3851"
       inkscape:connector-curvature="0" />
    <rect
       style="fill:none;stroke:none"
       id="rect3876"
       width="20"
       height="160"
       x="140"
       y="312.36218" />
    <g
       id="g3898"
       transform="matrix(0.8358209,0,0,0.82899588,15.298962,180.09727)"
       style="fill:#ffff00">
      <path
         inkscape:connector-curvature="0"
         id="path3886"
         d="m -18.300805,1050.613 0,-1.5179 11.9642855,0 11.964286,0 0,1.5179 0,1.5178 -11.964286,0 -11.9642855,0 0,-1.5178 z"
         style="fill:#ffff00;fill-opacity:1;stroke:none" />
      <path
         inkscape:connector-curvature="0"
         id="path3888"
         d="m -5.2136175,1047.7053 c -0.181538,-0.1816 -1.837188,-2.5038 -1.837188,-2.5769 0,-0.028 0.904306,-0.051 2.009568,-0.051 l 2.009568,0 -0.947013,1.317 c -0.520857,0.7243 -0.977745,1.3497 -1.015307,1.3897 -0.03756,0.04 -0.136395,0 -0.219628,-0.079 z"
         style="fill:#ffff00;fill-opacity:1;stroke:none" />
      <path
         inkscape:connector-curvature="0"
         id="path3890"
         d="m -7.6758055,1042.354 0,-1.3839 2.589286,0 2.589286,0 0,1.3839 0,1.384 -2.589286,0 -2.589286,0 0,-1.384 z"
         style="fill:#ffff00;fill-opacity:1;stroke:none" />
      <path
         inkscape:connector-curvature="0"
         id="path3892"
         d="m -7.6758055,1038.3808 0,-1.5178 2.589286,0 2.589286,0 0,1.5178 0,1.5179 -2.589286,0 -2.589286,0 0,-1.5179 z"
         style="fill:#ffff00;fill-opacity:1;stroke:none" />
      <path
         inkscape:connector-curvature="0"
         id="path3894"
         d="m -7.6758055,1034.1397 0,-1.4732 2.589286,0 2.589286,0 0,1.4732 0,1.4733 -2.589286,0 -2.589286,0 0,-1.4733 z"
         style="fill:#ffff00;fill-opacity:1;stroke:none" />
      <path
         inkscape:connector-curvature="0"
         id="path3896"
         d="m -6.2472335,1029.6755 0,-1.5625 1.205357,0 1.205357,0 0,1.5625 0,1.5625 -1.205357,0 -1.205357,0 0,-1.5625 z"
         style="fill:#ffff00;fill-opacity:1;stroke:none" />
    </g>
  </g>
</svg>
