<?xml version="1.0" encoding="UTF-8" standalone="no"?>
<!-- Created with Inkscape (http://www.inkscape.org/) -->

<svg
   xmlns:dc="http://purl.org/dc/elements/1.1/"
   xmlns:cc="http://creativecommons.org/ns#"
   xmlns:rdf="http://www.w3.org/1999/02/22-rdf-syntax-ns#"
   xmlns:svg="http://www.w3.org/2000/svg"
   xmlns="http://www.w3.org/2000/svg"
   xmlns:sodipodi="http://sodipodi.sourceforge.net/DTD/sodipodi-0.dtd"
   xmlns:inkscape="http://www.inkscape.org/namespaces/inkscape"
   width="20"
   height="20"
   id="svg2"
   version="1.1"
   inkscape:version="0.48.4 r9939"
   sodipodi:docname="edit-icon.svg">
  <defs
     id="defs4" />
  <sodipodi:namedview
     id="base"
     pagecolor="#ffffff"
     bordercolor="#666666"
     borderopacity="1.0"
     inkscape:pageopacity="0.0"
     inkscape:pageshadow="2"
     inkscape:zoom="44.8"
     inkscape:cx="6.4654256"
     inkscape:cy="9.4748637"
     inkscape:document-units="px"
     inkscape:current-layer="layer1"
     showgrid="true"
     inkscape:window-width="1536"
     inkscape:window-height="806"
     inkscape:window-x="0"
     inkscape:window-y="0"
     inkscape:window-maximized="1"
     units="px"
     showguides="true"
     inkscape:guide-bbox="true"
     gridtolerance="10"
     inkscape:snap-from-guide="false">
    <inkscape:grid
       type="xygrid"
       id="grid2995"
       empspacing="5"
       visible="true"
       enabled="true"
       snapvisiblegridlinesonly="true" />
    <sodipodi:guide
       orientation="0,1"
       position="12.098214,15.011161"
       id="guide3081" />
    <sodipodi:guide
       orientation="0.65947674,-0.75172497"
       position="17.667411,16.495536"
       id="guide3083" />
    <sodipodi:guide
       orientation="0,1"
       position="12.578125,14.419643"
       id="guide3085" />
    <sodipodi:guide
       orientation="-0.32340555,0.94626046"
       position="3.3482143,14.464286"
       id="guide3035" />
    <sodipodi:guide
       orientation="0.66797341,0.74418514"
       position="14.129464,15.089286"
       id="guide3039" />
  </sodipodi:namedview>
  <metadata
     id="metadata7">
    <rdf:RDF>
      <cc:Work
         rdf:about="">
        <dc:format>image/svg+xml</dc:format>
        <dc:type
           rdf:resource="http://purl.org/dc/dcmitype/StillImage" />
        <dc:title />
      </cc:Work>
    </rdf:RDF>
  </metadata>
  <g
     inkscape:label="Layer 1"
     inkscape:groupmode="layer"
     id="layer1"
     transform="translate(0,-1032.3622)"
     style="display:inline">
    <path
       style="fill:#ff9bff;fill-opacity:1;stroke:#000000;stroke-width:1.42857146;stroke-linejoin:round;stroke-miterlimit:4;stroke-opacity:1;stroke-dasharray:none"
       d=""
       id="path3023"
       inkscape:connector-curvature="0" />
    <path
       style="fill:#ff9bff;fill-opacity:1;stroke:none"
       d=""
       id="path3851"
       inkscape:connector-curvature="0" />
    <rect
       style="fill:none;stroke:none"
       id="rect3876"
       width="20"
       height="160"
       x="140"
       y="312.36218" />
    <g
       style="fill:none;stroke:#000000;stroke-width:0.54895854;stroke-miterlimit:4;stroke-opacity:1;stroke-dasharray:none"
       transform="matrix(1.0756071,0,0,0.94003797,14.107351,65.230341)"
       id="g3852">
      <path
         inkscape:connector-curvature="0"
         id="path3896"
         d="m -1.3010174,1039.4747 2.5289164,6.8435 -4.4206482,1.7388 -4.4206426,1.7389 -2.5289162,-6.8435 -2.528991,-6.8438"
         style="fill:none;stroke:#000000;stroke-width:0.54895854;stroke-miterlimit:4;stroke-opacity:1;stroke-dasharray:none"
         sodipodi:nodetypes="cccccc" />
      <g
         id="g3841"
         style="fill:none;stroke:#000000;stroke-width:0.54895854;stroke-miterlimit:4;stroke-opacity:1;stroke-dasharray:none">
        <g
           transform="translate(3.3991182,-2.8939978)"
           id="g3815"
           style="fill:none;stroke:#000000;stroke-width:0.54895854;stroke-miterlimit:4;stroke-opacity:1;stroke-dasharray:none">
          <path
             style="font-size:medium;font-style:normal;font-variant:normal;font-weight:normal;font-stretch:normal;text-indent:0;text-align:start;text-decoration:none;line-height:normal;letter-spacing:normal;word-spacing:normal;text-transform:none;direction:ltr;block-progression:tb;writing-mode:lr-tb;text-anchor:start;baseline-shift:baseline;color:#000000;fill:#000000;fill-opacity:1;stroke:none;stroke-width:0.54895854;marker:none;visibility:visible;display:inline;overflow:visible;enable-background:accumulate;font-family:Sans;-inkscape-font-specification:Sans"
             d="m 0.61609999,1032.8036 -0.77234979,-0.7724 -0.21875,-0.1874 -0.1875,0.1874 -0.7631643,0.7632 0.77216785,0.01 0.17849645,-0.1785 0.189256,0.1892"
             id="path3071" />
          <path
             style="font-size:medium;font-style:normal;font-variant:normal;font-weight:normal;font-stretch:normal;text-indent:0;text-align:start;text-decoration:none;line-height:normal;letter-spacing:normal;word-spacing:normal;text-transform:none;direction:ltr;block-progression:tb;writing-mode:lr-tb;text-anchor:start;baseline-shift:baseline;color:#000000;fill:#000000;fill-opacity:1;stroke:none;stroke-width:0.54895854;marker:none;visibility:visible;display:inline;overflow:visible;enable-background:accumulate;font-family:Sans;-inkscape-font-specification:Sans"
             d="m -2.0160792,1034.3447 c 0.2219025,-0.2211 0.4096645,-0.4082 0.4682587,-0.4668 l -0.8584295,0 -0.5412738,0.4688 z"
             id="path3069" />
          <path
             style="font-size:medium;font-style:normal;font-variant:normal;font-weight:normal;font-stretch:normal;text-indent:0;text-align:start;text-decoration:none;line-height:normal;letter-spacing:normal;word-spacing:normal;text-transform:none;direction:ltr;block-progression:tb;writing-mode:lr-tb;text-anchor:start;baseline-shift:baseline;color:#000000;fill:#000000;fill-opacity:1;stroke:none;stroke-width:0.54895854;marker:none;visibility:visible;display:inline;overflow:visible;enable-background:accumulate;font-family:Sans;-inkscape-font-specification:Sans"
             d="m 1.75,1034.3746 0.21875,-0.1875 -0.1875,-0.1875 -0.1393758,-0.1485 c 0,0 -0.83878145,-0.01 -0.75577185,0.035 l 0.30139785,0.3014 -0.1636997,0.1637 z"
             id="path3813" />
        </g>
        <g
           transform="translate(-0.07553596,0.60926266)"
           id="g3829"
           style="fill:none;stroke:#000000;stroke-width:0.54895854;stroke-miterlimit:4;stroke-opacity:1;stroke-dasharray:none">
          <path
             inkscape:connector-curvature="0"
             id="path3888"
             d="m -8.1953337,1041.6237 c 0.00238,-0.1636 0.3406675,-1.9499 0.3753896,-1.9821 0.013234,-0.013 0.4423062,0.3941 0.9532792,0.9032 l 0.9290373,0.9257 -1.0637535,0.1443 c -0.5850423,0.079 -1.0935109,0.1445 -1.1299042,0.145 -0.036474,0 -0.063085,-0.063 -0.063967,-0.1361 z"
             style="fill:none;stroke:#000000;stroke-width:0.54895854;stroke-miterlimit:4;stroke-opacity:1;stroke-dasharray:none" />
          <g
             id="g3819"
             style="fill:none;stroke:#000000;stroke-width:0.54895854;stroke-miterlimit:4;stroke-opacity:1;stroke-dasharray:none">
            <g
               id="g3825"
               style="fill:none;stroke:#000000;stroke-width:0.54895854;stroke-miterlimit:4;stroke-opacity:1;stroke-dasharray:none">
              <path
                 style="fill:none;stroke:#000000;stroke-width:0.55199999;stroke-miterlimit:4;stroke-opacity:1;stroke-dasharray:none"
                 d="m -6.3952049,1040.2334 -0.9671041,-0.982 1.8373659,-1.8393 1.8374139,-1.8396 0.9671307,0.982 0.9671714,0.9822 -1.8373654,1.8393 -1.8374139,1.8396 -0.9671985,-0.9822 z"
                 inkscape:connector-curvature="0" />
            </g>
          </g>
        </g>
      </g>
    </g>
    <rect
       y="1039.7249"
       x="0.33613256"
       height="0.3060737"
       width="13.973088"
       id="rect3881"
       style="fill:#000000;fill-opacity:1;stroke:#ffffff;stroke-width:0.72819608;stroke-linejoin:miter;stroke-miterlimit:4;stroke-opacity:1;stroke-dasharray:none" />
    <rect
       style="fill:#000000;fill-opacity:1;stroke:#ffffff;stroke-width:0.64940208;stroke-linejoin:miter;stroke-miterlimit:4;stroke-opacity:1;stroke-dasharray:none"
       id="rect3883"
       width="11.507239"
       height="0.29558197"
       x="1.0818125"
       y="1041.2269" />
    <rect
       y="1042.7412"
       x="1.769057"
       height="0.29737067"
       width="11.3751"
       id="rect3885"
       style="fill:#000000;fill-opacity:1;stroke:#ffffff;stroke-width:0.64761335;stroke-linejoin:miter;stroke-miterlimit:4;stroke-opacity:1;stroke-dasharray:none" />
    <rect
       style="fill:#000000;fill-opacity:1;stroke:#ffffff;stroke-width:0.69859201;stroke-linejoin:miter;stroke-miterlimit:4;stroke-opacity:1;stroke-dasharray:none"
       id="rect3887"
       width="11.725907"
       height="0.33567774"
       x="2.3564088"
       y="1044.2189" />
    <rect
       y="1045.7229"
       x="2.9519045"
       height="0.31306258"
       width="11.792578"
       id="rect3889"
       style="fill:#000000;fill-opacity:1;stroke:#ffffff;stroke-width:0.67656428;stroke-linejoin:miter;stroke-miterlimit:4;stroke-opacity:1;stroke-dasharray:none" />
    <rect
       style="fill:#000000;fill-opacity:1;stroke:#ffffff;stroke-width:0.67534482;stroke-linejoin:miter;stroke-miterlimit:4;stroke-opacity:1;stroke-dasharray:none"
       id="rect3891"
       width="11.704513"
       height="0.31428206"
       x="3.5762937"
       y="1047.2374" />
    <rect
       y="1048.7152"
       x="4.323791"
       height="0.32182413"
       width="11.176339"
       id="rect3893"
       style="fill:#000000;fill-opacity:1;stroke:#ffffff;stroke-width:0.66780275;stroke-linejoin:miter;stroke-miterlimit:4;stroke-opacity:1;stroke-dasharray:none" />
    <rect
       style="fill:#000000;fill-opacity:1;stroke:#ffffff;stroke-width:0.82645679;stroke-linejoin:miter;stroke-miterlimit:4;stroke-opacity:1;stroke-dasharray:none"
       id="rect3895"
       width="26.508755"
       height="0.20781301"
       x="-1.2403753"
       y="1050.3252" />
    <path
       inkscape:connector-curvature="0"
       id="rect3897"
       d="m -0.91491952,1051.5796 0,0.2502 0,0.091 0,0.2503 0.28437636,0 21.38612716,0 0.312828,0 0,-0.2503 0,-0.091 0,-0.2502 -0.312828,0 -21.38612716,0 -0.28437636,0 z"
       style="font-size:medium;font-style:normal;font-variant:normal;font-weight:normal;font-stretch:normal;text-indent:0;text-align:start;text-decoration:none;line-height:normal;letter-spacing:normal;word-spacing:normal;text-transform:none;direction:ltr;block-progression:tb;writing-mode:lr-tb;text-anchor:start;baseline-shift:baseline;color:#000000;fill:#ffffff;fill-opacity:1;stroke:#ffffff;stroke-width:0.41074994;stroke-miterlimit:4;stroke-opacity:1;stroke-dasharray:none;marker:none;visibility:visible;display:inline;overflow:visible;enable-background:accumulate;font-family:Sans;-inkscape-font-specification:Sans" />
    <path
       style="font-size:medium;font-style:normal;font-variant:normal;font-weight:normal;font-stretch:normal;text-indent:0;text-align:start;text-decoration:none;line-height:normal;letter-spacing:normal;word-spacing:normal;text-transform:none;direction:ltr;block-progression:tb;writing-mode:lr-tb;text-anchor:start;baseline-shift:baseline;color:#000000;fill:#000000;fill-opacity:1;stroke:none;stroke-width:0.55199999;marker:none;visibility:visible;display:inline;overflow:visible;enable-background:accumulate;font-family:Sans;-inkscape-font-specification:Sans"
       d="m 10.15625,3.21875 -0.25,0.09375 -2.28125,0.78125 1.78125,0 0.40625,-0.15625 0.0625,0.15625 0.625,0 -0.25,-0.625 z M 13.8125,3.25 C 13.702575,3.337 13.107785,3.81675 13,3.90625 c 0.06645,0.049 0.123091,0.1358 0.1875,0.1875 l 0.8125,0 -0.15625,-0.15625 c 0.102949,-0.09 0.647045,-0.5974 0.75,-0.6875 z M 11,8 11.34375,8.53125 10.21875,8.0625 10.5,8.3125 11.53125,9.25 l 0.25,0.1875 0.125,-0.15625 0.0625,-0.03125 0.09375,-0.09375 0.40625,0.9375 2.625,6.1875 -4.5,1.53125 -4.5,1.53125 L 3.4375,13.15625 0.84375,7 2.34375,6.5 0.65625,6.46875 0.375,6.5625 0.09375,6.6875 0.21875,6.9375 2.9375,13.375 5.65625,19.8125 5.75,20.0625 6,19.96875 10.75,18.34375 15.53125,16.6875 15.8125,16.59375 15.6875,16.3125 12.96875,9.90625 12.5,8.78125 13.96875,7.53125 14.8125,6.75 15.09375,6.5 15.5,6.15625 15.71875,5.96875 c 0.122171,-0.1066378 0.252863,-0.205818 0.375,-0.3125 l 0.1875,-0.1875 C 16.813187,5.0039196 17.344288,4.5286444 17.875,4.0625 l 0.4375,-0.375 -0.78125,-0.03125 c -0.158161,0.1411 -0.339816,0.26755 -0.5,0.40625 L 15.84375,5.09375 15.75,5 15.03125,5 14.9375,5 l -0.71875,0 0.875,0.78125 -0.75,0.6875 -0.65625,0.5625 -0.15625,0.15625 -0.75,0.625 -0.5,0.4375 -0.75,-1.75 -0.59375,0 -0.03125,0 -0.60763,0.2367545 C 10.076001,6.9872117 10.108077,6.5264331 9.5490769,6.974571 L 10.4375,7 C 10.598709,6.8544006 10.752668,6.6680593 10.90625,6.53125 L 11.65625,8.25 11.375,8.0625 11.09375,7.8125 M 5.15625,4.9375 3.21875,5.59375 5,5.59375 C 5.5792311,5.39515 6.1390671,5.1973 6.71875,5 z m 5.125,0.0625 0.25,0.59375 0.625,0 L 10.90625,5 z m 0.875,0.59375 0.8125,0 C 12.175045,5.40765 12.3893,5.1883 12.59375,5 l -0.75,0 z"
       transform="translate(0,1032.3622)"
       id="path5333"
       inkscape:connector-curvature="0"
       sodipodi:nodetypes="ccccccccccccccccccccccccccccccccccccccccccccccccccccccccccccccccccccccccccccccccccccccccccccc" />
  </g>
  <g
     inkscape:groupmode="layer"
     id="layer3"
     inkscape:label="Layer 2"
     style="display:inline">
    <rect
       transform="translate(0,-1032.3622)"
       style="fill:#000000;fill-opacity:1;stroke:#ffffff;stroke-width:0.72819608;stroke-linejoin:miter;stroke-miterlimit:4;stroke-opacity:1;stroke-dasharray:none;display:inline"
       id="rect5361"
       width="13.973088"
       height="0.3060737"
       x="0.33613256"
       y="1039.7249" />
    <rect
       transform="translate(0,-1032.3622)"
       y="1041.2269"
       x="1.0818125"
       height="0.29558197"
       width="11.507239"
       id="rect5363"
       style="fill:#000000;fill-opacity:1;stroke:#ffffff;stroke-width:0.64940208;stroke-linejoin:miter;stroke-miterlimit:4;stroke-opacity:1;stroke-dasharray:none;display:inline" />
    <rect
       transform="translate(0,-1032.3622)"
       style="fill:#000000;fill-opacity:1;stroke:#ffffff;stroke-width:0.64761335;stroke-linejoin:miter;stroke-miterlimit:4;stroke-opacity:1;stroke-dasharray:none;display:inline"
       id="rect5365"
       width="11.3751"
       height="0.29737067"
       x="1.769057"
       y="1042.7412" />
    <rect
       transform="translate(0,-1032.3622)"
       y="1044.2189"
       x="2.3564088"
       height="0.33567774"
       width="11.725907"
       id="rect5367"
       style="fill:#000000;fill-opacity:1;stroke:#ffffff;stroke-width:0.69859201;stroke-linejoin:miter;stroke-miterlimit:4;stroke-opacity:1;stroke-dasharray:none;display:inline" />
    <rect
       transform="translate(0,-1032.3622)"
       style="fill:#000000;fill-opacity:1;stroke:#ffffff;stroke-width:0.67656428;stroke-linejoin:miter;stroke-miterlimit:4;stroke-opacity:1;stroke-dasharray:none;display:inline"
       id="rect5369"
       width="11.792578"
       height="0.31306258"
       x="2.9519045"
       y="1045.7229" />
    <rect
       transform="translate(0,-1032.3622)"
       y="1047.2374"
       x="3.5762937"
       height="0.31428206"
       width="11.704513"
       id="rect5371"
       style="fill:#000000;fill-opacity:1;stroke:#ffffff;stroke-width:0.67534482;stroke-linejoin:miter;stroke-miterlimit:4;stroke-opacity:1;stroke-dasharray:none;display:inline" />
    <rect
       transform="translate(0,-1032.3622)"
       style="fill:#000000;fill-opacity:1;stroke:#ffffff;stroke-width:0.66780275;stroke-linejoin:miter;stroke-miterlimit:4;stroke-opacity:1;stroke-dasharray:none;display:inline"
       id="rect5373"
       width="11.176339"
       height="0.32182413"
       x="4.323791"
       y="1048.7152" />
    <rect
       transform="translate(0,-1032.3622)"
       y="1050.3252"
       x="-1.2403753"
       height="0.20781301"
       width="26.508755"
       id="rect5375"
       style="fill:#000000;fill-opacity:1;stroke:#ffffff;stroke-width:0.82645679;stroke-linejoin:miter;stroke-miterlimit:4;stroke-opacity:1;stroke-dasharray:none;display:inline" />
    <path
       transform="translate(0,-1032.3622)"
       style="font-size:medium;font-style:normal;font-variant:normal;font-weight:normal;font-stretch:normal;text-indent:0;text-align:start;text-decoration:none;line-height:normal;letter-spacing:normal;word-spacing:normal;text-transform:none;direction:ltr;block-progression:tb;writing-mode:lr-tb;text-anchor:start;baseline-shift:baseline;color:#000000;fill:#ffffff;fill-opacity:1;stroke:#ffffff;stroke-width:0.41074994;stroke-miterlimit:4;stroke-opacity:1;stroke-dasharray:none;marker:none;visibility:visible;display:inline;overflow:visible;enable-background:accumulate;font-family:Sans;-inkscape-font-specification:Sans"
       d="m -0.91491952,1051.5796 0,0.2502 0,0.091 0,0.2503 0.28437636,0 21.38612716,0 0.312828,0 0,-0.2503 0,-0.091 0,-0.2502 -0.312828,0 -21.38612716,0 -0.28437636,0 z"
       id="path5377"
       inkscape:connector-curvature="0" />
  </g>
</svg>
